<svg xmlns="http://www.w3.org/2000/svg" xmlns:xlink="http://www.w3.org/1999/xlink" viewBox="0 0 380 300"><defs><style>.a{fill:url(#a);}.b{fill:#e0ebfc;}.c{fill:url(#b);}.d{fill:#f9a7a7;}.e{fill:#3762cc;}.f{fill:none;stroke:#3075d8;stroke-miterlimit:10;}.g{fill:#3b3b3b;}.h{fill:#ccc;}.i{fill:#adadad;}.j{fill:#ffa638;}.k{fill:#eb7100;}.l{fill:#ed8300;}.m{fill:#e9e9e0;}.n{fill:#d9d7ca;}.o{fill:#556080;}.p{fill:#fff;}.q{fill:#c8bdb8;}</style><linearGradient id="a" x1="142.61" y1="127.9" x2="245.15" y2="127.9" gradientUnits="userSpaceOnUse"><stop offset="0" stop-color="#92b6ff"/><stop offset="0.1" stop-color="#89b0fa"/><stop offset="0.28" stop-color="#6fa1ee"/><stop offset="0.5" stop-color="#4688da"/><stop offset="0.57" stop-color="#377fd3"/><stop offset="0.87" stop-color="#3762cc"/><stop offset="0.99" stop-color="#4475d8"/></linearGradient><linearGradient id="b" x1="142.61" y1="186.78" x2="245.15" y2="186.78" gradientUnits="userSpaceOnUse"><stop offset="0" stop-color="#6c94e5"/><stop offset="0.16" stop-color="#638be1"/><stop offset="0.41" stop-color="#4973d5"/><stop offset="0.57" stop-color="#3762cc"/><stop offset="0.87" stop-color="#3762cc"/><stop offset="0.99" stop-color="#4475d8"/></linearGradient></defs><path class="a" d="M239.86,75h-92a5.29,5.29,0,0,0-5.29,5.29V180.83a3.31,3.31,0,0,1,3.3-3.31h95.93a3.31,3.31,0,0,1,3.31,3.31V80.27A5.29,5.29,0,0,0,239.86,75Z"/><path class="b" d="M158.06,126.15h12.31c0-8.59-.23-9.54.77-10.65,1.3-1.44,4.93-1.45,4.93,2.59,0,23.84.29,23.61-.81,24.79a2.73,2.73,0,0,1-2.07.86c-1.92,0-2.82-1.43-2.82-3.48V130.8H158.06v9.46c0,2.43-1.29,3.48-2.88,3.48-1.92,0-2.82-1.43-2.82-3.48V118.09c0-4.1,3.6-4,4.9-2.6,1,1.1.8,2.07.8,10.66Z"/><path class="b" d="M185.73,115.11c7.74,0,9.8-.13,12.4.54,4.23,1.09,8.16,5.41,8.16,13.46,0,7-2.85,12.82-9.53,13.9a21.58,21.58,0,0,1-3.49.25c-9.26,0-11,.83-11-4V118.61c0-2.43,1-3.5,3.5-3.5Zm2.21,4.51v19.11c5.19,0,7.86.3,9.71-1.33s2.86-4.39,2.86-8.33c0-10.38-5.92-9.45-12.57-9.45Z"/><path class="b" d="M214.84,115.11c7.74,0,9.8-.13,12.4.54,10.93,2.83,11.57,25.27-1.37,27.36a21.66,21.66,0,0,1-3.49.25c-9.19,0-11,.87-11-4,0-22-.3-22.18.83-23.31A3.66,3.66,0,0,1,214.84,115.11Zm2.2,4.51v19.11c4.63,0,7.77.38,9.72-1.33,4-3.39,4.25-15.44-1.5-17.21-2.26-.69-4.42-.57-8.22-.57Z"/><path class="c" d="M241.84,196H145.91a3.31,3.31,0,0,1-3.3-3.31v-11.9a3.31,3.31,0,0,1,3.3-3.31h95.93a3.31,3.31,0,0,1,3.31,3.31v11.9A3.31,3.31,0,0,1,241.84,196Z"/><path class="d" d="M159.51,190.75h-4a.67.67,0,0,1-.66-.66v-6.62a.67.67,0,0,1,.66-.66h4a.66.66,0,0,1,.66.66v6.62A.66.66,0,0,1,159.51,190.75Z"/><path class="e" d="M241.84,197.36H145.91a4.63,4.63,0,0,1-4.63-4.63v-11.9a4.64,4.64,0,0,1,4.63-4.64h95.93a4.64,4.64,0,0,1,4.63,4.64v11.9A4.63,4.63,0,0,1,241.84,197.36Zm-95.93-18.52a2,2,0,0,0-2,2v11.9a2,2,0,0,0,2,2h95.93a2,2,0,0,0,2-2v-11.9a2,2,0,0,0-2-2Z"/><path class="e" d="M159.51,192.07h-4a2,2,0,0,1-2-2v-6.62a2,2,0,0,1,2-2h4a2,2,0,0,1,2,2v6.62A2,2,0,0,1,159.51,192.07Zm-3.31-2.64h2.65v-5.3H156.2Z"/><path class="e" d="M245.15,182.15a1.33,1.33,0,0,1-1.33-1.32,2,2,0,0,0-2-2H145.91a2,2,0,0,0-2,2,1.33,1.33,0,0,1-2.65,0V80.27a6.63,6.63,0,0,1,6.62-6.62h92a6.63,6.63,0,0,1,6.61,6.62V180.83A1.32,1.32,0,0,1,245.15,182.15Zm-99.24-6h95.93a4.68,4.68,0,0,1,2,.45V80.27a4,4,0,0,0-4-4h-92a4,4,0,0,0-4,4v96.37A4.71,4.71,0,0,1,145.91,176.19Z"/><path class="e" d="M236,92.5h-4a2,2,0,0,1-2-2V83.9a2,2,0,0,1,2-2h4a2,2,0,0,1,2,2v6.61A2,2,0,0,1,236,92.5Zm-3.31-2.65h2.64V84.56h-2.64Z"/><rect class="f" x="165.5" y="181.5" width="72" height="10" rx="2.31"/><rect class="g" x="155.75" y="235.17" width="3.26" height="5.84"/><rect class="h" x="151.2" y="200.46" width="12.6" height="7.89"/><rect class="i" x="151.2" y="204.45" width="12.6" height="3.89"/><path class="j" d="M166.61,209v18.9a9.23,9.23,0,0,1-8.92,9.28,9.12,9.12,0,0,1-9.3-9.11V209a1.43,1.43,0,0,1,1.42-1.43h15.37A1.43,1.43,0,0,1,166.61,209Z"/><path class="k" d="M148.46,228.73l-.05-.07c0,.28.05.55.09.82A6.28,6.28,0,0,1,148.46,228.73Z"/><path class="l" d="M165.18,207.57h-2.43a1.42,1.42,0,0,1,1,1.35v19.65a7.77,7.77,0,0,1-7.47,7.8h-.16a7.62,7.62,0,0,1-5.39-2.23,9.12,9.12,0,0,0,7,3,9.24,9.24,0,0,0,8.92-9.28V209A1.43,1.43,0,0,0,165.18,207.57Z"/><path class="g" d="M156,241a52.7,52.7,0,0,1-20,25c-16.14,10.47-33.28,8.05-40,7-16.4-2.57-16.08-10.66-36-16s-51,4.15-61,9c-.55.26-2.85,5.95-1,6,8.84.26,32.81-19.74,61-11,18.16,5.63,17.73,13,37,16,6.47,1,24.18,3.76,41-7,14.81-9.47,20.32-23.91,22-29"/><path class="m" d="M78.17,246.39H61c-.48,0-.86.39-.86,1.14v31.41c0,.21.38.59.86.59H84.71c.48,0,.87-.38.87-.59V254.07c0-.41-.06-.55-.15-.64l-6.89-6.89A.51.51,0,0,0,78.17,246.39Z"/><polygon class="n" points="78.47 246.48 78.47 253.49 85.49 253.49 78.47 246.48"/><path class="o" d="M84.71,279.53H61a.85.85,0,0,1-.86-.86v-9.2H85.58v9.2A.86.86,0,0,1,84.71,279.53Z"/><path class="p" d="M71.23,271.79v.79l-2.84,4.26-.16.13h3v.79h-4V277l2.84-4.26.17-.13h-3v-.79Z"/><path class="p" d="M73.6,277.76h-1v-6h1Z"/><path class="p" d="M76.06,277.76h-1v-6H76.8a2.45,2.45,0,0,1,.75.12,2.3,2.3,0,0,1,.67.37,1.84,1.84,0,0,1,.48.59,1.59,1.59,0,0,1,.18.77,2.18,2.18,0,0,1-.15.82,1.86,1.86,0,0,1-.43.62,1.94,1.94,0,0,1-.67.39,2.53,2.53,0,0,1-.85.13h-.72v2.16Zm0-5.23v2.36H77a1.12,1.12,0,0,0,.35-.06.85.85,0,0,0,.32-.2.94.94,0,0,0,.23-.38,1.82,1.82,0,0,0,.09-.61,1.48,1.48,0,0,0,0-.34.91.91,0,0,0-.52-.65,1.28,1.28,0,0,0-.6-.12Z"/><path class="q" d="M69,257.48V256.3h1.19v-1.18H69v-1.19h1.19v-1.18H69v-1.18h1.19v-1.19H69V249.2h1.19V248H69v-1.18H67.82V248H66.64v1.19h1.18v1.18H66.64v1.19h1.18v1.18H66.64v1.18h1.18v1.19H66.64v1.18h1.18v1.18H65.45v3a3,3,0,0,0,5.92,0v-3Zm1.19,3a1.78,1.78,0,1,1-3.55,0v-1.77h3.55Z"/><path class="q" d="M67.82,261H69a.6.6,0,1,0,0-1.19H67.82a.6.6,0,0,0,0,1.19Z"/></svg>