<svg height="512pt" viewBox="-79 0 512 512" width="512pt" xmlns="http://www.w3.org/2000/svg"><path d="m324.394531 118.34375c16.28125 0 29.527344-13.246094 29.527344-29.527344v-27.679687c0-16.28125-13.246094-29.527344-29.527344-29.527344h-28.117187c-4.101563-18.074219-20.28125-31.609375-39.574219-31.609375h-216.113281c-22.382813 0-40.589844 18.207031-40.589844 40.589844v430.824218c0 22.378907 18.207031 40.585938 40.589844 40.585938h216.113281c22.378906 0 40.585937-18.207031 40.585937-40.585938v-210.128906h41.636719c8.28125 0 15-6.714844 15-15v-98.769531c0-8.285156-6.71875-15-15-15h-41.636719v-14.171875zm-27.105469-56.738281h26.636719v26.738281h-26.636719zm-30 409.808593c0 5.835938-4.75 10.585938-10.585937 10.585938h-216.113281c-5.839844 0-10.589844-4.75-10.589844-10.585938v-430.824218c0-5.839844 4.75-10.589844 10.589844-10.589844h216.113281c5.835937 0 10.585937 4.75 10.585937 10.589844zm56.632813-308.898437v68.769531h-26.632813v-68.769531zm0 0"/><path d="m217.109375 169.050781h-138.023437c-8.285157 0-15 6.714844-15 15v237.050781c0 8.28125 6.714843 15 15 15h138.023437c8.285156 0 15-6.71875 15-15v-237.050781c0-8.285156-6.714844-15-15-15zm-15 237.050781h-108.023437v-207.050781h108.023437zm0 0"/><path d="m151.644531 400.890625c24.328125 0 44.117188-19.816406 44.117188-44.171875s-19.792969-44.171875-44.117188-44.171875c-4.9375 0-9.683593.828125-14.117187 2.335937v-17.933593c4.433594 1.503906 9.179687 2.332031 14.117187 2.332031 24.328125 0 44.117188-19.816406 44.117188-44.171875s-19.792969-44.171875-44.117188-44.171875c-20.386719 0-44.117187 18.53125-44.117187 39.269531v106.511719c0 24.355469 19.789062 44.171875 44.117187 44.171875zm0-159.953125c7.785157 0 14.117188 6.359375 14.117188 14.171875s-6.332031 14.171875-14.117188 14.171875c-7.785156 0-14.117187-6.355469-14.117187-14.171875 0-7.8125 6.332031-14.171875 14.117187-14.171875zm0 101.609375c7.785157 0 14.117188 6.359375 14.117188 14.171875s-6.332031 14.171875-14.117188 14.171875c-7.785156 0-14.117187-6.355469-14.117187-14.171875 0-7.8125 6.332031-14.171875 14.117187-14.171875zm0 0"/><path d="m76.925781 60.273438c0-8.300782-6.714843-15.027344-15-15.027344-8.285156 0-15 6.726562-15 15.027344 0 8.296874 6.714844 15.027343 15 15.027343 8.285157 0 15-6.730469 15-15.027343zm0 0"/><path d="m121.75 60.273438c0-8.300782-6.714844-15.027344-15-15.027344s-15 6.726562-15 15.027344c0 8.296874 6.714844 15.027343 15 15.027343s15-6.730469 15-15.027343zm0 0"/><path d="m166.574219 60.273438c0-8.300782-6.71875-15.027344-15-15.027344-8.285157 0-15 6.726562-15 15.027344 0 8.296874 6.714843 15.027343 15 15.027343 8.28125 0 15-6.730469 15-15.027343zm0 0"/><path d="m76.925781 103.34375c0-8.296875-6.714843-15.027344-15-15.027344-8.285156 0-15 6.730469-15 15.027344 0 8.300781 6.714844 15.027344 15 15.027344 8.285157 0 15-6.726563 15-15.027344zm0 0"/><path d="m121.75 103.34375c0-8.296875-6.714844-15.027344-15-15.027344s-15 6.730469-15 15.027344c0 8.300781 6.714844 15.027344 15 15.027344s15-6.726563 15-15.027344zm0 0"/><path d="m166.574219 103.34375c0-8.296875-6.71875-15.027344-15-15.027344-8.285157 0-15 6.730469-15 15.027344 0 8.300781 6.714843 15.027344 15 15.027344 8.28125 0 15-6.726563 15-15.027344zm0 0"/></svg>