<svg xmlns="http://www.w3.org/2000/svg" xmlns:xlink="http://www.w3.org/1999/xlink" viewBox="0 0 380 300"><defs><style>.a{fill:#afb6bb;}.b{fill:#e7eced;}.c{fill:url(#a);}.d{fill:#ccc;}.e{fill:#adadad;}.f{fill:#a6e2e3;}.g{fill:#7ccbcc;}.h{fill:#3b3b3b;}.i,.m{fill:#e9e9e0;}.j,.n{fill:#d9d7ca;}.k,.o{fill:#f3d55b;}.l,.p{fill:#e6e6e6;}.m,.n,.o,.p{stroke:#ccc;stroke-miterlimit:10;}.q{fill:#26b99a;}.r{fill:#14a085;}.s{fill:#fff;}.t{fill:#ffbe73;}.u{fill:#c7c5cb;}.v{fill:#6a647f;}.w{fill:#4f4c5f;}.x{fill:#f9d888;}.y{fill:#ddd;}.z{fill:#423e4f;}.aa{fill:#556080;}.ab{fill:#c8bdb8;}</style><linearGradient id="a" x1="43.04" y1="101.52" x2="336.06" y2="101.52" gradientUnits="userSpaceOnUse"><stop offset="0" stop-color="#7bb3e5"/><stop offset="0.1" stop-color="#72b1e4"/><stop offset="0.27" stop-color="#58aae0"/><stop offset="0.49" stop-color="#2fa0da"/><stop offset="0.57" stop-color="#1e9cd7"/><stop offset="0.87" stop-color="#0075be"/><stop offset="0.99" stop-color="#2e7ab8"/></linearGradient></defs><path class="a" d="M244,280.87H135.12a1.21,1.21,0,0,1-.62-2.21l9.11-6.43c9.84-6.94,14.49-19.66,11.62-31.78h68.65c-2.87,12.12,1.79,24.84,11.63,31.78l9.11,6.42A1.22,1.22,0,0,1,244,280.87Z"/><path class="b" d="M318.39,240.45H60.71A17.67,17.67,0,0,1,43,222.78V20.67A17.67,17.67,0,0,1,60.71,3H318.39a17.67,17.67,0,0,1,17.67,17.67v202.1A17.67,17.67,0,0,1,318.39,240.45Z"/><path class="b" d="M237.06,296h-95a13.11,13.11,0,0,1-13.12-13.12h0a2,2,0,0,1,2-2H248.14a2,2,0,0,1,2,2h0A13.12,13.12,0,0,1,237.06,296Z"/><path class="c" d="M318.39,3H60.71A17.67,17.67,0,0,0,43,20.67V200h293V20.67A17.67,17.67,0,0,0,318.39,3Z"/><rect class="d" x="75.36" y="242" width="10.72" height="7.38"/><rect class="e" x="75.36" y="245.28" width="10.72" height="4.1"/><path class="f" d="M73,265.34V249.26a1.21,1.21,0,0,1,1.21-1.21H87.25a1.21,1.21,0,0,1,1.21,1.21v16.22a7.74,7.74,0,0,1-7.91,7.74A7.84,7.84,0,0,1,73,265.34Z"/><path class="g" d="M80.55,273.22a7.82,7.82,0,0,0,2.67-.41l-.21.05a4.78,4.78,0,0,1-1.39.15,6.6,6.6,0,0,1-6.35-6.63V250.3a1.21,1.21,0,0,1,1.21-1.2H87.25a1.21,1.21,0,0,1,1.21,1.2h0v-1a1.21,1.21,0,0,0-1.21-1.21H74.18A1.21,1.21,0,0,0,73,249.26v16.08A7.84,7.84,0,0,0,80.55,273.22Z"/><rect class="h" x="79.29" y="273" width="2.76" height="4.95"/><circle class="e" cx="298" cy="222" r="3"/><path class="h" d="M-10,138c16,2,25.57,2.67,34,10,33.84,29.42-16.34,102.21,2,126,9.73,12.63,47.71,9.15,53,4,.27-.26,2.44-.76,3,0s-.48,2.58-1,3c-2,1.59-42.94,12.67-57.5-2.5C.75,254.79,53.88,164.38,18,149c-18.86-8.24-19-2-28-4C-18.11,141.19-10.24,137.68-10,138Z"/><rect class="d" x="292.53" y="241.62" width="10.72" height="7.38"/><rect class="e" x="292.53" y="244.9" width="10.72" height="4.1"/><path class="f" d="M290.14,265V248.88a1.21,1.21,0,0,1,1.21-1.21h13.07a1.21,1.21,0,0,1,1.21,1.21V265.1a7.75,7.75,0,0,1-7.91,7.74A7.84,7.84,0,0,1,290.14,265Z"/><path class="g" d="M297.72,272.84a7.86,7.86,0,0,0,2.67-.41l-.21,0a4.82,4.82,0,0,1-1.39.16,6.6,6.6,0,0,1-6.35-6.63V249.92a1.21,1.21,0,0,1,1.21-1.21h10.77a1.21,1.21,0,0,1,1.21,1.21h0v-1a1.21,1.21,0,0,0-1.21-1.21H291.35a1.21,1.21,0,0,0-1.21,1.21V265A7.84,7.84,0,0,0,297.72,272.84Z"/><rect class="h" x="296.46" y="272.62" width="2.76" height="4.95"/><path class="h" d="M299,277c1.48,3.62,4.39,10,10,13,6.46,3.48,13.39,1.7,27-2,16.92-4.6,25.59-9.26,36-16,3.45-2.24,8.11-6.52,9-7s4.79-.85,4,1a14,14,0,0,1-6,7c-4.8,2.26-18.25,13.11-42,19-14.55,3.61-22.44,5.47-30,1-6.66-3.94-9.65-11.81-11-16"/><path class="i" d="M102.44,121.94H81.86c-.57,0-1,.47-1,1.37V161a1.08,1.08,0,0,0,1,.71h28.42a1.08,1.08,0,0,0,1-.71v-29.8c0-.5-.07-.65-.19-.77l-8.25-8.25A.61.61,0,0,0,102.44,121.94Z"/><polygon class="j" points="102.81 122.05 102.81 130.45 111.21 130.45 102.81 122.05"/><circle class="k" cx="89.64" cy="132.18" r="3.24"/><path class="l" d="M110.28,161.66H81.86a1,1,0,0,1-1-1v-11h30.5v11A1,1,0,0,1,110.28,161.66Z"/><path class="m" d="M112.27,111H91.69c-.57,0-1,.47-1,1.37V150a1.08,1.08,0,0,0,1,.71h28.42a1.08,1.08,0,0,0,1-.71v-29.8c0-.5-.07-.65-.19-.77l-8.25-8.25A.6.6,0,0,0,112.27,111Z"/><polygon class="n" points="112.64 111.14 112.64 119.54 121.04 119.54 112.64 111.14"/><circle class="o" cx="99.47" cy="121.27" r="3.24"/><path class="p" d="M120.11,150.75H91.69a1,1,0,0,1-1-1v-11h30.5v11A1,1,0,0,1,120.11,150.75Z"/><path class="i" d="M119.13,102H98.54c-.57,0-1,.46-1,1.37V141a1.05,1.05,0,0,0,1,.71H127c.58,0,1-.46,1-.71V111.2c0-.49-.07-.65-.18-.77l-8.25-8.25A.67.67,0,0,0,119.13,102Z"/><polygon class="j" points="119.49 102.11 119.49 110.51 127.89 110.51 119.49 102.11"/><circle class="k" cx="106.32" cy="112.23" r="3.24"/><polygon class="q" points="97.51 129.66 105.31 129.66 128 129.66 128 121.86 120.91 115.12 113.46 123.27 109.57 119.39 97.51 129.66"/><path class="r" d="M127,141.71H98.54a1,1,0,0,1-1-1v-11H128v11A1,1,0,0,1,127,141.71Z"/><path class="s" d="M108.09,132.25v5.56a1.81,1.81,0,0,1-.18.85,1.56,1.56,0,0,1-.5.55,1.8,1.8,0,0,1-.71.29,3.77,3.77,0,0,1-.83.08,3.22,3.22,0,0,1-.5,0,4.49,4.49,0,0,1-.59-.13l-.59-.21a2.92,2.92,0,0,1-.47-.26l.49-.79a2.4,2.4,0,0,0,.28.14l.39.14.45.11a2.27,2.27,0,0,0,.43.05,1.48,1.48,0,0,0,.82-.2.77.77,0,0,0,.33-.68v-5.46Z"/><path class="s" d="M111,139.54h-1.16v-7.15h2a2.74,2.74,0,0,1,.9.15,2.29,2.29,0,0,1,.8.43,2.44,2.44,0,0,1,.58.7,2.05,2.05,0,0,1,.21.93,2.64,2.64,0,0,1-.18,1,2,2,0,0,1-.51.74,2.33,2.33,0,0,1-.8.46,3,3,0,0,1-1,.17H111v2.58Zm0-6.27v2.83h1.07a1.23,1.23,0,0,0,.42-.07,1,1,0,0,0,.38-.24,1.09,1.09,0,0,0,.28-.46,2.09,2.09,0,0,0,.06-1.13,1.16,1.16,0,0,0-.2-.44,1.23,1.23,0,0,0-.42-.35,1.62,1.62,0,0,0-.72-.14Z"/><path class="s" d="M120.91,135.85v2.76a2.15,2.15,0,0,1-.5.46,3.55,3.55,0,0,1-.58.3,3.68,3.68,0,0,1-.63.17,4.73,4.73,0,0,1-.65,0,2.89,2.89,0,0,1-1.18-.23,2.6,2.6,0,0,1-.94-.69,3.45,3.45,0,0,1-.63-1.14,5.86,5.86,0,0,1,0-3.18,3.5,3.5,0,0,1,.63-1.13,2.7,2.7,0,0,1,.95-.7,2.85,2.85,0,0,1,1.17-.24,3,3,0,0,1,1.09.2,2.72,2.72,0,0,1,.9.58l-.81.72a1.29,1.29,0,0,0-.53-.41,1.68,1.68,0,0,0-.62-.13,1.72,1.72,0,0,0-.68.14,1.4,1.4,0,0,0-.58.46,2.35,2.35,0,0,0-.41.84,5.43,5.43,0,0,0-.15,1.26,5.73,5.73,0,0,0,.15,1.26,2.41,2.41,0,0,0,.39.87,1.58,1.58,0,0,0,.56.51,1.4,1.4,0,0,0,.66.16h.29l.36-.05.34-.1a.43.43,0,0,0,.24-.16v-1.76h-1.21v-.8Z"/><path class="t" d="M251.51,152.09,253,133.86a36.61,36.61,0,0,1,41.69-13.72l1.23.43a35.76,35.76,0,0,0-7.23-3.5l-1.79-.63a36,36,0,0,0-41.3,13.16L244.34,147l7.17,5.08Z"/><path class="u" d="M171.62,62.15h-9.78L133,91l9.78,9.78,28.84-28.84Z"/><path class="v" d="M245.88,73.49a39.51,39.51,0,0,0-67.45-27.94l-16.59,16.6,9.78,9.78,16.6-16.59a25.67,25.67,0,1,1,36.3,36.3l-12.44,12.45,9.78,9.78,12.45-12.44a39.25,39.25,0,0,0,11.57-27.94Z"/><path class="w" d="M221.86,113.87l12.45-12.44a42.26,42.26,0,0,0,2.91-3.25,43.93,43.93,0,0,0-12.69-6.55h0l-12.44,12.45Z"/><path class="x" d="M180.16,115.87l26.33-18.39a36,36,0,0,1,12.28,1.31l1.82.52a36,36,0,0,1,26.1,34.6l-24,39.84H148.36a9.23,9.23,0,0,1-9.16-10.26,71.21,71.21,0,0,1,11.1-31.78Z"/><path class="t" d="M228.9,148.87h8.79l9-15a36,36,0,0,0-26.1-34.6l-1.82-.52a35.74,35.74,0,0,0-7.93-1.33l1.26.36a36.62,36.62,0,0,1,26.1,35.29l-9.3,15.76Z"/><circle class="v" cx="225.99" cy="148.87" r="25.86"/><circle class="y" cx="225.99" cy="148.87" r="12.9"/><path class="v" d="M206.49,97.48a36.44,36.44,0,0,0-6.94,1.15c-13.27,3.56-35.63,12.37-49.25,33.08l3.17,3.16a11.72,11.72,0,0,0,16.65-.12,64.11,64.11,0,0,1,4.75-4.36,80.25,80.25,0,0,1,23.86-13.25,11.71,11.71,0,0,0,7.76-11V97.48Z"/><path class="z" d="M153.52,159.91v-3.32a2.12,2.12,0,0,1,4.24,0v3.32a2.12,2.12,0,1,1-4.24,0Z"/><path class="z" d="M188.09,159.91v-3.32a2.13,2.13,0,0,1,4.25,0v3.32a2.13,2.13,0,1,1-4.25,0Z"/><path class="z" d="M172.93,164a8.18,8.18,0,0,1-6.16-2.81,2.12,2.12,0,1,1,3.2-2.79,3.91,3.91,0,0,0,5.91,0,2.13,2.13,0,0,1,3.21,2.79,8.2,8.2,0,0,1-6.16,2.81Z"/><path class="x" d="M153.43,96.62a12.29,12.29,0,0,1,0,17.38,3.49,3.49,0,0,1-4.93,0L119.77,85.27a3.49,3.49,0,0,1,0-4.93,12.29,12.29,0,0,1,17.38,0l16.28,16.28Z"/><path class="t" d="M148.5,114a3.49,3.49,0,0,0,4.93,0,12.29,12.29,0,0,0,0-17.38L147.77,91a12.28,12.28,0,0,1,0,17.37,3.47,3.47,0,0,1-4.93,0Z"/><path class="i" d="M297,143.86H279.87c-.48,0-.87.38-.87,1.14v31.41a.9.9,0,0,0,.87.59h23.71a.9.9,0,0,0,.87-.59V151.54c0-.42-.05-.55-.15-.65L297.41,144A.51.51,0,0,0,297,143.86Z"/><polygon class="j" points="297.35 143.94 297.35 150.96 304.36 150.96 297.35 143.94"/><path class="aa" d="M303.58,177H279.87a.87.87,0,0,1-.87-.87v-9.19h25.45v9.19A.87.87,0,0,1,303.58,177Z"/><path class="s" d="M290.11,169.26v.79l-2.84,4.26-.16.13h3v.78h-4v-.78l2.84-4.26.17-.13h-3v-.79Z"/><path class="s" d="M292.48,175.22h-1v-6h1Z"/><path class="s" d="M294.93,175.22h-1v-6h1.71a2.46,2.46,0,0,1,.76.12,1.87,1.87,0,0,1,.66.37,1.8,1.8,0,0,1,.48.58,1.66,1.66,0,0,1,.18.78,2.18,2.18,0,0,1-.15.82,1.82,1.82,0,0,1-.43.62,1.94,1.94,0,0,1-.66.38,2.39,2.39,0,0,1-.86.14h-.72v2.15Zm0-5.22v2.36h.89a1,1,0,0,0,.35-.06.91.91,0,0,0,.32-.2,1,1,0,0,0,.24-.38,1.84,1.84,0,0,0,.08-.61,1.48,1.48,0,0,0,0-.34.83.83,0,0,0-.16-.36,1,1,0,0,0-.35-.3,1.43,1.43,0,0,0-.6-.11Z"/><path class="ab" d="M287.88,155v-1.18h1.18v-1.19h-1.18V151.4h1.18v-1.18h-1.18V149h1.18v-1.18h-1.18v-1.18h1.18v-1.19h-1.18V144.3h-1.19v1.18h-1.18v1.19h1.18v1.18h-1.18V149h1.18v1.19h-1.18v1.18h1.18v1.18h-1.18v1.19h1.18V155h-2.36v3a3,3,0,1,0,5.91,0v-3Zm1.18,3a1.78,1.78,0,1,1-3.55,0v-1.77h3.55Z"/><path class="ab" d="M286.69,158.5h1.19a.59.59,0,0,0,0-1.18h-1.19a.59.59,0,0,0,0,1.18Z"/></svg>