<svg xmlns="http://www.w3.org/2000/svg" viewBox="0 0 380 300"><defs><style>.a{fill:#535454;}.b{fill:#444443;}.c{fill:#a4d9f4;}.d{fill:#7cc9e8;}.e{fill:#efefef;}.f{fill:#898989;}.g{fill:#70b5e8;}.h{fill:#f94a46;}.i{fill:#f9d698;}.j{fill:#92b620;}.k{fill:#ffb70d;}.l{fill:#adadad;}.m{fill:#3b3b3b;}.n{fill:#ccc;}.o{fill:#ffa638;}.p{fill:#eb7100;}.q{fill:#ed8300;}.r{fill:#e9e9e0;}.s{fill:#d9d7ca;}.t{fill:#f3d55b;}.u{fill:#26b99a;}.v{fill:#14a085;}.w{fill:#fff;}</style></defs><path class="a" d="M223.57,58H164.75a15.69,15.69,0,0,0-15.67,15.66V209.84a15.69,15.69,0,0,0,15.67,15.67h58.82a15.69,15.69,0,0,0,15.66-15.67V73.67A15.68,15.68,0,0,0,223.57,58Z"/><path class="b" d="M157.76,209.84V73.67A15.68,15.68,0,0,1,173.42,58h-8.67a15.69,15.69,0,0,0-15.67,15.66V209.84a15.69,15.69,0,0,0,15.67,15.67h8.67A15.69,15.69,0,0,1,157.76,209.84Z"/><path class="c" d="M230.55,209.84a7,7,0,0,1-7,7H164.75a7,7,0,0,1-7-7V73.67a7,7,0,0,1,7-7h7.33a2.61,2.61,0,0,1,2.61,2.61V71a4.05,4.05,0,0,0,4.05,4h30.84a4,4,0,0,0,4-4v-2.4a1.87,1.87,0,0,1,1.87-1.87h8.08a7,7,0,0,1,7,7Z"/><path class="d" d="M166.09,209.84V73.67a7,7,0,0,1,6.37-7c-.41-.06,0,0-7.71,0a7,7,0,0,0-7,7V209.84a7,7,0,0,0,7,7h8.33A7,7,0,0,1,166.09,209.84Z"/><path class="e" d="M190,95.36h-6.77a1.13,1.13,0,0,1-1.12-1.13V87.46a1.12,1.12,0,0,1,1.12-1.12H190a1.13,1.13,0,0,1,1.13,1.12v6.77A1.14,1.14,0,0,1,190,95.36Z"/><path class="f" d="M221.8,95.36H215a1.13,1.13,0,0,1-1.12-1.13V87.46A1.12,1.12,0,0,1,215,86.34h6.77a1.13,1.13,0,0,1,1.13,1.12v6.77A1.14,1.14,0,0,1,221.8,95.36Z"/><path class="f" d="M190,111.44h-6.77a1.13,1.13,0,0,1-1.12-1.13v-6.76a1.13,1.13,0,0,1,1.12-1.13H190a1.14,1.14,0,0,1,1.13,1.13v6.76A1.14,1.14,0,0,1,190,111.44Z"/><path class="g" d="M205.87,111.44h-6.76a1.14,1.14,0,0,1-1.13-1.13v-6.76a1.14,1.14,0,0,1,1.13-1.13h6.76a1.14,1.14,0,0,1,1.13,1.13v6.76A1.14,1.14,0,0,1,205.87,111.44Z"/><path class="h" d="M221.8,111.44H215a1.13,1.13,0,0,1-1.12-1.13v-6.76a1.13,1.13,0,0,1,1.12-1.13h6.77a1.14,1.14,0,0,1,1.13,1.13v6.76A1.14,1.14,0,0,1,221.8,111.44Z"/><path class="i" d="M190,127.73h-6.77a1.13,1.13,0,0,1-1.12-1.13v-6.76a1.13,1.13,0,0,1,1.12-1.13H190a1.14,1.14,0,0,1,1.13,1.13v6.76A1.14,1.14,0,0,1,190,127.73Z"/><path class="f" d="M205.87,127.73h-6.76A1.14,1.14,0,0,1,198,126.6v-6.76a1.14,1.14,0,0,1,1.13-1.13h6.76a1.14,1.14,0,0,1,1.13,1.13v6.76A1.14,1.14,0,0,1,205.87,127.73Z"/><path class="i" d="M221.8,127.73H215a1.13,1.13,0,0,1-1.12-1.13v-6.76a1.13,1.13,0,0,1,1.12-1.13h6.77a1.14,1.14,0,0,1,1.13,1.13v6.76A1.14,1.14,0,0,1,221.8,127.73Z"/><path class="j" d="M190,159.89h-6.77a1.13,1.13,0,0,1-1.12-1.13V152a1.13,1.13,0,0,1,1.12-1.13H190a1.14,1.14,0,0,1,1.13,1.13v6.76A1.14,1.14,0,0,1,190,159.89Z"/><path class="f" d="M205.87,159.89h-6.76a1.14,1.14,0,0,1-1.13-1.13V152a1.14,1.14,0,0,1,1.13-1.13h6.76A1.14,1.14,0,0,1,207,152v6.76A1.14,1.14,0,0,1,205.87,159.89Z"/><path class="k" d="M221.8,143.81H215a1.13,1.13,0,0,1-1.12-1.13v-6.76a1.13,1.13,0,0,1,1.12-1.13h6.77a1.14,1.14,0,0,1,1.13,1.13v6.76A1.14,1.14,0,0,1,221.8,143.81Z"/><path class="j" d="M205.87,209.51h-6.76a1.14,1.14,0,0,1-1.13-1.13v-6.76a1.14,1.14,0,0,1,1.13-1.13h6.76a1.14,1.14,0,0,1,1.13,1.13v6.76A1.14,1.14,0,0,1,205.87,209.51Z"/><path class="e" d="M221.8,209.51H215a1.13,1.13,0,0,1-1.12-1.13v-6.76a1.13,1.13,0,0,1,1.12-1.13h6.77a1.14,1.14,0,0,1,1.13,1.13v6.76A1.14,1.14,0,0,1,221.8,209.51Z"/><circle class="l" cx="206" cy="70" r="2"/><path class="m" d="M197,268s2,10,9,16,30,4,30,4c1.29.85,46.31-3,52.5-10.5,8.6-10.47,10.37-30.26,7.5-69.5-2.64-36.05-4.12-42,2-51,10-14.71,30-19,56-20,13.14.5,19.62,1.69,26,2,7,.34,3,5,1,5-3.12,0-15.16-2.35-27-2-19.06.56-42.27,4.09-52,17-6.81,9-3.26,16.22-2,49,1.54,40.1,2.31,60.15-8,71-8.12,8.54-24.08,9.69-56,12-17,1.23-26.25.06-33-6-5.77-5.18-9-17-9-17Z"/><rect class="m" x="192.78" y="262.51" width="3.26" height="5.84"/><rect class="n" x="188.22" y="227.8" width="12.6" height="7.89"/><rect class="l" x="188.22" y="231.8" width="12.6" height="3.89"/><path class="o" d="M203.63,236.34v18.91a9.21,9.21,0,0,1-8.91,9.27,9.1,9.1,0,0,1-9.3-9.11V236.34a1.42,1.42,0,0,1,1.42-1.42h15.37A1.42,1.42,0,0,1,203.63,236.34Z"/><path class="p" d="M185.49,256.08l-.05-.07a7.4,7.4,0,0,0,.08.81C185.5,256.58,185.49,256.33,185.49,256.08Z"/><path class="q" d="M202.21,234.92h-2.43a1.41,1.41,0,0,1,1,1.35v19.64a7.75,7.75,0,0,1-7.47,7.8h-.17a7.61,7.61,0,0,1-5.38-2.22,9.09,9.09,0,0,0,7,3,9.21,9.21,0,0,0,8.91-9.27V236.34A1.42,1.42,0,0,0,202.21,234.92Z"/><path class="r" d="M299.74,142H283c-.46,0-.84.38-.84,1.11v30.62a.87.87,0,0,0,.84.58h23.12a.87.87,0,0,0,.85-.58V149.49c0-.4,0-.53-.15-.63l-6.71-6.71A.51.51,0,0,0,299.74,142Z"/><polygon class="s" points="300.04 142.09 300.04 148.92 306.87 148.92 300.04 142.09"/><circle class="t" cx="289.32" cy="150.33" r="2.64"/><polygon class="u" points="282.15 164.5 288.5 164.5 306.96 164.5 306.96 158.16 301.19 152.67 295.13 159.31 291.97 156.15 282.15 164.5"/><path class="v" d="M306.11,174.31H283a.85.85,0,0,1-.84-.84v-9H307v9A.85.85,0,0,1,306.11,174.31Z"/><path class="w" d="M290.76,166.61v4.53a1.47,1.47,0,0,1-.15.69,1.33,1.33,0,0,1-.4.45,1.57,1.57,0,0,1-.58.23,3,3,0,0,1-.68.07,2.07,2.07,0,0,1-.4,0,2.77,2.77,0,0,1-.48-.11,3.39,3.39,0,0,1-.48-.17,1.79,1.79,0,0,1-.39-.21l.41-.64a.86.86,0,0,0,.22.12l.32.11.36.09a2.47,2.47,0,0,0,.36,0,1.24,1.24,0,0,0,.66-.16.65.65,0,0,0,.27-.55v-4.45Z"/><path class="w" d="M293.12,172.54h-.95v-5.81h1.67a2.65,2.65,0,0,1,.74.11,2,2,0,0,1,.65.36,1.81,1.81,0,0,1,.46.57,1.57,1.57,0,0,1,.18.75,2.09,2.09,0,0,1-.15.81,1.63,1.63,0,0,1-.42.6,1.94,1.94,0,0,1-.64.38,2.51,2.51,0,0,1-.84.13h-.7v2.1Zm0-5.1v2.31H294a1,1,0,0,0,.34-.06,1,1,0,0,0,.31-.19.94.94,0,0,0,.23-.38,1.7,1.7,0,0,0,.09-.59,2.11,2.11,0,0,0,0-.33,1,1,0,0,0-.16-.36,1.11,1.11,0,0,0-.35-.28,1.19,1.19,0,0,0-.58-.12Z"/><path class="w" d="M301.19,169.54v2.25a1.84,1.84,0,0,1-.41.38,3.45,3.45,0,0,1-.47.24,3,3,0,0,1-1,.17,2.35,2.35,0,0,1-1-.19,2.18,2.18,0,0,1-.76-.56,2.6,2.6,0,0,1-.51-.93,3.93,3.93,0,0,1-.19-1.29,3.89,3.89,0,0,1,.19-1.29,2.6,2.6,0,0,1,.51-.93,2,2,0,0,1,.77-.56,2.31,2.31,0,0,1,.95-.2,2.38,2.38,0,0,1,.89.16,2.28,2.28,0,0,1,.73.47l-.66.59a1,1,0,0,0-.43-.33,1.25,1.25,0,0,0-.5-.11,1.51,1.51,0,0,0-.56.11,1.2,1.2,0,0,0-.47.38,1.88,1.88,0,0,0-.33.68,4.18,4.18,0,0,0-.13,1,4.92,4.92,0,0,0,.12,1,2.23,2.23,0,0,0,.32.71,1.37,1.37,0,0,0,.46.41,1.13,1.13,0,0,0,.54.13h.23l.29,0,.28-.07a.38.38,0,0,0,.2-.14v-1.43h-1v-.65Z"/></svg>