<svg xmlns="http://www.w3.org/2000/svg" viewBox="0 0 380 300"><defs><style>.a{fill:#ffe177;}.b{fill:#ffcf5c;}.c{fill:#8a7e88;}.d{fill:#635562;}.e{fill:#bde8f9;}.f{fill:#8ed7f5;}.g{fill:#9de599;}.h{fill:#74d4a2;}.i{fill:#3b3b3b;}.j{fill:#ccc;}.k{fill:#adadad;}.l{fill:#ffa638;}.m{fill:#eb7100;}.n{fill:#ed8300;}.o{fill:#e3e4d8;}.p{fill:#d0cebd;}.q{fill:#82619a;}.r{fill:#fff;}</style></defs><path class="a" d="M222.07,156.31h-7.42v-9.54h7.42a2,2,0,0,1,2,1.95v5.64A2,2,0,0,1,222.07,156.31Z"/><path class="b" d="M222.07,146.77h-3.26a2,2,0,0,1,2,1.95v5.64a2,2,0,0,1-2,1.95h3.26a2,2,0,0,0,2-1.95v-5.64A2,2,0,0,0,222.07,146.77Z"/><path class="a" d="M222.07,171.22h-7.42v-9.54h7.42a2,2,0,0,1,2,2v5.63A2,2,0,0,1,222.07,171.22Z"/><path class="b" d="M222.07,161.68h-3.56a2,2,0,0,1,2,2v5.63a2,2,0,0,1-2,1.95h3.56a2,2,0,0,0,2-1.95v-5.63A2,2,0,0,0,222.07,161.68Z"/><path class="c" d="M207.92,221H206l-10.9-1-11.5,1h-1.88a9.76,9.76,0,0,1-9.76-9.76V133.78a9.76,9.76,0,0,1,9.76-9.76h26.16a9.76,9.76,0,0,1,9.76,9.76v77.49A9.76,9.76,0,0,1,207.92,221Z"/><path class="d" d="M207.92,124h-14.4a9.76,9.76,0,0,1,9.76,9.76v77.49a9.76,9.76,0,0,1-9.76,9.76h14.4a9.76,9.76,0,0,0,9.76-9.76V133.78A9.76,9.76,0,0,0,207.92,124Z"/><path class="e" d="M203.77,168.77H185.92a5.86,5.86,0,0,1-5.86-5.86V138.12a5.86,5.86,0,0,1,5.86-5.86h17.85a5.86,5.86,0,0,1,5.85,5.86v24.79A5.85,5.85,0,0,1,203.77,168.77Z"/><path class="f" d="M203.77,132.26h-.66v36.51h.66a5.85,5.85,0,0,0,5.85-5.86V138.12A5.85,5.85,0,0,0,203.77,132.26Z"/><path class="g" d="M185.62,186h-4.78a.78.78,0,0,1-.78-.78v-8a.78.78,0,0,1,.78-.78h4.78a.78.78,0,0,1,.78.78v8A.78.78,0,0,1,185.62,186Z"/><path class="g" d="M197.23,186h-4.78a.78.78,0,0,1-.78-.78v-8a.78.78,0,0,1,.78-.78h4.78a.78.78,0,0,1,.78.78v8A.78.78,0,0,1,197.23,186Z"/><path class="g" d="M208.84,186h-4.78a.78.78,0,0,1-.78-.78v-8a.78.78,0,0,1,.78-.78h4.78a.78.78,0,0,1,.78.78v8A.78.78,0,0,1,208.84,186Z"/><path class="h" d="M185.62,176.47h-4.78a.77.77,0,0,0-.4.11h2.21a.79.79,0,0,1,.78.79v8a.77.77,0,0,1-.38.66h2.57a.78.78,0,0,0,.78-.78v-8A.78.78,0,0,0,185.62,176.47Z"/><path class="h" d="M197.23,176.47h-4.78a.77.77,0,0,0-.4.11h2.21a.79.79,0,0,1,.78.79v8a.77.77,0,0,1-.38.66h2.57a.78.78,0,0,0,.78-.78v-8A.78.78,0,0,0,197.23,176.47Z"/><path class="h" d="M208.84,176.47h-4.78a.8.8,0,0,0-.4.11h2.21a.79.79,0,0,1,.78.79v8a.77.77,0,0,1-.38.66h2.57a.78.78,0,0,0,.78-.78v-8A.78.78,0,0,0,208.84,176.47Z"/><path class="d" d="M209.62,193.76H180.06a1.46,1.46,0,0,1,0-2.92h29.56a1.46,1.46,0,1,1,0,2.92Z"/><path class="d" d="M209.62,200.1H180.06a1.46,1.46,0,1,1,0-2.92h29.56a1.46,1.46,0,1,1,0,2.92Z"/><path class="d" d="M209.62,206.45H180.06a1.47,1.47,0,0,1,0-2.93h29.56a1.47,1.47,0,1,1,0,2.93Z"/><path class="a" d="M204.09,213.58h-18.5a2,2,0,0,0-2,1.95V221H206v-5.5A2,2,0,0,0,204.09,213.58Z"/><path class="b" d="M204.09,213.58h-6.51a2,2,0,0,1,1.95,1.95V221H206v-5.5A2,2,0,0,0,204.09,213.58Z"/><path class="i" d="M197,268s2,10,9,16,30,4,30,4c1.29.85,46.31-3,52.5-10.5,8.6-10.47,10.37-30.26,7.5-69.5-2.64-36.05-4.12-42,2-51,10-14.71,30-19,56-20,13.14.5,19.62,1.69,26,2,7,.34,3,5,1,5-3.12,0-15.16-2.35-27-2-19.06.56-42.27,4.09-52,17-6.81,9-3.26,16.22-2,49,1.54,40.1,2.31,60.15-8,71-8.12,8.54-24.08,9.69-56,12-17,1.23-26.25.06-33-6-5.77-5.18-9-17-9-17Z"/><rect class="i" x="193.78" y="262.51" width="3.26" height="5.84"/><rect class="j" x="189.22" y="227.8" width="12.6" height="7.89"/><rect class="k" x="189.22" y="231.8" width="12.6" height="3.89"/><path class="l" d="M204.63,236.34v18.91a9.21,9.21,0,0,1-8.91,9.27,9.1,9.1,0,0,1-9.3-9.11V236.34a1.42,1.42,0,0,1,1.42-1.42h15.37A1.42,1.42,0,0,1,204.63,236.34Z"/><path class="m" d="M186.49,256.08l-.05-.07a7.4,7.4,0,0,0,.08.81C186.5,256.58,186.49,256.33,186.49,256.08Z"/><path class="n" d="M203.21,234.92h-2.43a1.41,1.41,0,0,1,1,1.35v19.64a7.75,7.75,0,0,1-7.47,7.8h-.17a7.61,7.61,0,0,1-5.38-2.22,9.09,9.09,0,0,0,7,3,9.21,9.21,0,0,0,8.91-9.27V236.34A1.42,1.42,0,0,0,203.21,234.92Z"/><path class="o" d="M306.76,172.34H284.69V142h17.1l5,5Z"/><path class="p" d="M301.79,142v5h5Z"/><path class="q" d="M284.69,164.07h22.07V174H284.69Z"/><path class="r" d="M294.62,172.34a.55.55,0,0,1-.55-.55v-5.51a.56.56,0,0,1,.55-.56.55.55,0,0,1,.55.56v5.51A.54.54,0,0,1,294.62,172.34Z"/><path class="r" d="M296.28,170.14h-1.66a.55.55,0,0,1-.55-.55v-3.31a.56.56,0,0,1,.55-.56h1.66a2.21,2.21,0,0,1,0,4.42ZM295.17,169h1.11a1.1,1.1,0,1,0,0-2.2h-1.11Z"/><path class="q" d="M292.42,161.86a2.21,2.21,0,1,1,2.2-2.2A2.21,2.21,0,0,1,292.42,161.86Zm0-3.31a1.11,1.11,0,1,0,1.1,1.11A1.11,1.11,0,0,0,292.42,158.55Z"/><path class="q" d="M297.93,159.66a2.21,2.21,0,1,1,2.21-2.21A2.21,2.21,0,0,1,297.93,159.66Zm0-3.32a1.11,1.11,0,1,0,1.11,1.11A1.11,1.11,0,0,0,297.93,156.34Z"/><path class="q" d="M294.07,160.21a.55.55,0,0,1-.55-.55v-8.28a.55.55,0,0,1,1.1,0v8.28A.55.55,0,0,1,294.07,160.21Z"/><path class="q" d="M299.59,158a.55.55,0,0,1-.55-.55v-8.28a.55.55,0,0,1,.55-.55.55.55,0,0,1,.55.55v8.28A.55.55,0,0,1,299.59,158Z"/><path class="q" d="M294.07,154.14a.5.5,0,0,1-.31-.1.54.54,0,0,1-.24-.45v-2.21a.54.54,0,0,1,.35-.51l5.51-2.21a.56.56,0,0,1,.76.51v2.21a.55.55,0,0,1-.35.51l-5.51,2.21A.52.52,0,0,1,294.07,154.14Zm.55-2.39v1L299,151v-1Zm5-.37Z"/><path class="r" d="M291.86,172.34a.55.55,0,0,1-.55-.55v-3.44l-1.17,2.06a.57.57,0,0,1-1,0L288,168.35v3.44a.55.55,0,0,1-1.1,0v-5.51a.55.55,0,0,1,1-.28l1.73,3,1.72-3a.56.56,0,0,1,1,.28v5.51A.55.55,0,0,1,291.86,172.34Z"/><path class="r" d="M302.62,169.59h-1.93a.56.56,0,0,1,0-1.11h1.93a.83.83,0,1,0,0-1.65h-1.93a.56.56,0,0,1,0-1.11h1.93a1.94,1.94,0,0,1,0,3.87Z"/><path class="r" d="M302.62,172.34h-1.93a.55.55,0,0,1-.55-.55.55.55,0,0,1,.55-.55h1.93a.83.83,0,1,0,0-1.65h-1.93a.56.56,0,0,1,0-1.11h1.93a1.93,1.93,0,0,1,0,3.86Z"/></svg>