<svg xmlns="http://www.w3.org/2000/svg" viewBox="0 0 380 300"><defs><style>.a{fill:#e5e9ea;}.b{fill:#d1d1d1;}.c{fill:#fcb65f;}.d{fill:#e29a4b;}.e{fill:#53bce9;}.f{fill:#36a6ce;}.g{fill:#566368;}.h{fill:#6f7b7f;}.i{fill:#435054;}.j{fill:#3b3b3b;}.k{fill:#ccc;}.l{fill:#adadad;}.m{fill:#ffa638;}.n{fill:#eb7100;}.o{fill:#ed8300;}.p{fill:#f4f4f4;}</style></defs><path class="a" d="M111.81,122.2V99.14a3.53,3.53,0,0,0-3.53-3.54H96.49A3.54,3.54,0,0,0,93,99.14V122.2"/><path class="b" d="M101.52,122.2V95.6h-5A3.54,3.54,0,0,0,93,99.14V122.2"/><path class="c" d="M241.36,126.4v86.3a10.72,10.72,0,0,1-10.71,10.71h-140A10.72,10.72,0,0,1,79.94,212.7V126.4a10.72,10.72,0,0,1,10.71-10.71h21.19a10.71,10.71,0,0,0,10.12-7.2l3.91-11.29A10.72,10.72,0,0,1,136,90h62.5a10.72,10.72,0,0,1,10.12,7.2l3.91,11.29a10.71,10.71,0,0,0,10.12,7.2h8A10.72,10.72,0,0,1,241.36,126.4Z"/><path class="d" d="M99.06,223.41H90.65A10.72,10.72,0,0,1,79.94,212.7V126.4a10.72,10.72,0,0,1,10.71-10.71h7.74v0a10.72,10.72,0,0,0-10,10.69v86.3A10.72,10.72,0,0,0,99.06,223.41Z"/><path class="d" d="M144.39,90a10.72,10.72,0,0,0-10.12,7.2l-3.91,11.29a10.71,10.71,0,0,1-10.12,7.2h-7.19v-.07a10.7,10.7,0,0,0,8.91-7.13l3.91-11.29A10.72,10.72,0,0,1,136,90Z"/><path class="e" d="M241.36,144.85V212.7a10.72,10.72,0,0,1-10.71,10.71h-140A10.72,10.72,0,0,1,79.94,212.7V144.85Z"/><path class="f" d="M99.06,223.41H90.65A10.72,10.72,0,0,1,79.94,212.7V144.85h8.4V212.7A10.72,10.72,0,0,0,99.06,223.41Z"/><circle class="a" cx="160.65" cy="168.73" r="44.63"/><path class="g" d="M192.21,168.73a31.57,31.57,0,1,1-10.41-23.42A31.48,31.48,0,0,1,192.21,168.73Z"/><path class="h" d="M183,146.41a31.51,31.51,0,0,1,9.2,23.93A31.57,31.57,0,0,1,159,137.21,31.48,31.48,0,0,1,183,146.41Z"/><path class="h" d="M153.06,176.32a31.51,31.51,0,0,1,9.2,23.93,31.55,31.55,0,0,1-33.13-33.13A31.48,31.48,0,0,1,153.06,176.32Z"/><path class="i" d="M160.65,202.76a34,34,0,1,1,34-34A34.07,34.07,0,0,1,160.65,202.76Zm0-63.12a29.09,29.09,0,1,0,29.09,29.09A29.12,29.12,0,0,0,160.65,139.64Z"/><path class="i" d="M160.65,156.06a12.67,12.67,0,1,0,12.67,12.67A12.68,12.68,0,0,0,160.65,156.06Z"/><path class="a" d="M176.68,113.22H196.1a4.62,4.62,0,0,0,4.62-4.62v-5.09a4.62,4.62,0,0,0-4.62-4.62H176.68a4.62,4.62,0,0,0-4.62,4.62v5.09A4.62,4.62,0,0,0,176.68,113.22Z"/><path class="d" d="M196.1,115.69H176.68a7.1,7.1,0,0,1-7.09-7.09v-5.08a7.1,7.1,0,0,1,7.09-7.1H196.1a7.1,7.1,0,0,1,7.09,7.1v5.08A7.1,7.1,0,0,1,196.1,115.69Zm-19.42-14.33a2.16,2.16,0,0,0-2.15,2.15v5.09a2.15,2.15,0,0,0,2.15,2.15H196.1a2.15,2.15,0,0,0,2.15-2.15v-5.08a2.16,2.16,0,0,0-2.15-2.16Z"/><circle class="g" cx="110.63" cy="205.33" r="8.93"/><path class="j" d="M197,268s2,10,9,16,30,4,30,4c1.29.85,46.31-3,52.5-10.5,8.6-10.47,10.37-30.26,7.5-69.5-2.64-36.05-4.12-42,2-51,10-14.71,30-19,56-20,13.14.5,19.62,1.69,26,2,7,.34,3,5,1,5-3.12,0-15.16-2.35-27-2-19.06.56-42.27,4.09-52,17-6.81,9-3.26,16.22-2,49,1.54,40.1,2.31,60.15-8,71-8.12,8.54-24.08,9.69-56,12-17,1.23-26.25.06-33-6-5.77-5.18-9-17-9-17Z"/><rect class="j" x="193.78" y="262.51" width="3.26" height="5.84"/><rect class="k" x="189.22" y="227.8" width="12.6" height="7.89"/><rect class="l" x="189.22" y="231.8" width="12.6" height="3.89"/><path class="m" d="M204.63,236.34v18.91a9.21,9.21,0,0,1-8.91,9.27,9.1,9.1,0,0,1-9.3-9.11V236.34a1.42,1.42,0,0,1,1.42-1.42h15.37A1.42,1.42,0,0,1,204.63,236.34Z"/><path class="n" d="M186.49,256.08l-.05-.07a7.4,7.4,0,0,0,.08.81C186.5,256.58,186.49,256.33,186.49,256.08Z"/><path class="o" d="M203.21,234.92h-2.43a1.41,1.41,0,0,1,1,1.35v19.64a7.75,7.75,0,0,1-7.47,7.8h-.17a7.61,7.61,0,0,1-5.38-2.22,9.09,9.09,0,0,0,7,3,9.21,9.21,0,0,0,8.91-9.27V236.34A1.42,1.42,0,0,0,203.21,234.92Z"/><polygon class="p" points="283.13 143.07 300.03 143.07 300.03 150.96 306.79 150.96 306.79 176.87 283.13 176.87 283.13 143.07"/><path d="M293.32,169.24h0c-.11.44-.22,1-.34,1.44l-.45,1.6h1.66l-.47-1.6C293.57,170.24,293.44,169.68,293.32,169.24Z"/><path d="M307.81,150.94a.65.65,0,0,0-.17-.45l-6.86-7.84h0a.53.53,0,0,0-.14-.12l-.05,0-.13-.05,0,0-.16,0H283.4a1.4,1.4,0,0,0-1.4,1.4V176.6a1.4,1.4,0,0,0,1.4,1.4h23a1.4,1.4,0,0,0,1.4-1.4V151S307.81,151,307.81,150.94Zm-20.07,24.54a9.29,9.29,0,0,1-.53-1.75c-.2-.94-.52-1.19-1.21-1.21h-.51v3H283.8v-7.42a16.45,16.45,0,0,1,2.27-.15,3.88,3.88,0,0,1,2.43.59,1.93,1.93,0,0,1,.69,1.57,2,2,0,0,1-1.33,1.85v0a1.89,1.89,0,0,1,1,1.4c.24.85.47,1.83.62,2.12Zm7.26,0-.58-1.93h-2.16l-.53,1.93H290l2.29-7.52h2.23l2.33,7.52Zm9.25,0h-1.84l-.64-3.23c-.14-.76-.26-1.46-.35-2.32h0c-.14.84-.26,1.56-.44,2.32l-.71,3.23h-1.86L296.6,168h1.82l.57,3.1c.17.9.32,1.87.44,2.62h0c.12-.81.3-1.71.49-2.64l.63-3.08h1.81l.6,3.17c.17.88.29,1.68.4,2.52h0c.12-.84.28-1.72.44-2.61l.61-3.08h1.73Zm-20.85-9.37v-22.3h16.16V151a.7.7,0,0,0,.7.7h6.16v14.46Z"/><path d="M286.25,169.17a4.57,4.57,0,0,0-.76.05v2.08h.66c.85,0,1.35-.43,1.35-1.08S287,169.18,286.25,169.17Z"/><path d="M296.46,157.58l4.62-1.19a8.09,8.09,0,0,0-1.89-4.51Z"/><path d="M289,159.2a8,8,0,0,0,3.68,3.22l0-6.31Z"/><path d="M298.63,151.39a8,8,0,0,0-4.72-1.28l2.81,5.66Z"/><path d="M293.43,162.62a8,8,0,0,0,4.8-.92l-5-3.85Z"/><path d="M293.18,150.25a8,8,0,0,0-3.91,2.92l6.18,1.28Z"/><path d="M298.83,161.26a8.09,8.09,0,0,0,2.23-4.35l-6.12,1.57Z"/><path d="M288.92,153.83a8.07,8.07,0,0,0-.1,4.89l4.81-4.09Z"/></svg>