<svg height="512pt" viewBox="-119 0 512 512" width="512pt" xmlns="http://www.w3.org/2000/svg"><path d="m264.265625 170.425781h-39.179687v-50.355469h39.179687c5.691406 0 10.300781 4.613282 10.300781 10.300782v29.753906c0 5.691406-4.613281 10.300781-10.300781 10.300781zm0 0" fill="#ffe177"/><path d="m264.265625 120.070312h-17.1875c5.691406 0 10.304687 4.613282 10.304687 10.300782v29.753906c0 5.691406-4.613281 10.300781-10.304687 10.300781h17.1875c5.691406 0 10.300781-4.609375 10.300781-10.300781v-29.753906c0-5.6875-4.613281-10.300782-10.300781-10.300782zm0 0" fill="#ffcf5c"/><path d="m264.265625 249.121094h-39.179687v-50.355469h39.179687c5.691406 0 10.300781 4.613281 10.300781 10.304687v29.75c0 5.691407-4.613281 10.300782-10.300781 10.300782zm0 0" fill="#ffe177"/><path d="m264.265625 198.765625h-18.789063c5.691407 0 10.304688 4.613281 10.304688 10.304687v29.75c0 5.691407-4.613281 10.300782-10.304688 10.300782h18.789063c5.691406 0 10.300781-4.609375 10.300781-10.300782v-29.75c0-5.691406-4.613281-10.304687-10.300781-10.304687zm0 0" fill="#ffcf5c"/><path d="m189.601562 512h-9.9375l-57.546874-5.242188-60.691407 5.242188h-9.917969c-28.445312 0-51.507812-23.0625-51.507812-51.507812v-408.984376c0-28.445312 23.0625-51.507812 51.507812-51.507812h138.09375c28.449219 0 51.507813 23.0625 51.507813 51.507812v408.984376c0 28.445312-23.058594 51.507812-51.507813 51.507812zm0 0" fill="#8a7e88"/><path d="m189.601562 0h-75.996093c28.449219 0 51.507812 23.0625 51.507812 51.507812v408.984376c0 28.445312-23.058593 51.507812-51.507812 51.507812h75.996093c28.449219 0 51.507813-23.0625 51.507813-51.507812v-408.984376c0-28.445312-23.058594-51.507812-51.507813-51.507812zm0 0" fill="#635562"/><path d="m167.667969 236.15625h-94.222657c-17.070312 0-30.90625-13.835938-30.90625-30.902344v-130.859375c0-17.070312 13.835938-30.90625 30.90625-30.90625h94.222657c17.070312 0 30.90625 13.839844 30.90625 30.90625v130.859375c0 17.066406-13.839844 30.902344-30.90625 30.902344zm0 0" fill="#bde8f9"/><path d="m167.667969 43.488281h-3.46875v192.667969h3.46875c17.066406 0 30.902343-13.835938 30.902343-30.902344v-130.859375c0-17.070312-13.835937-30.90625-30.902343-30.90625zm0 0" fill="#8ed7f5"/><path d="m71.875 327.167969h-25.214844c-2.277344 0-4.121094-1.84375-4.121094-4.121094v-42.113281c0-2.277344 1.84375-4.121094 4.121094-4.121094h25.214844c2.277344 0 4.121094 1.84375 4.121094 4.121094v42.113281c0 2.277344-1.84375 4.121094-4.121094 4.121094zm0 0" fill="#9de599"/><path d="m133.164062 327.167969h-25.21875c-2.273437 0-4.121093-1.84375-4.121093-4.121094v-42.113281c0-2.277344 1.847656-4.121094 4.121093-4.121094h25.21875c2.273438 0 4.121094 1.84375 4.121094 4.121094v42.113281c0 2.277344-1.847656 4.121094-4.121094 4.121094zm0 0" fill="#9de599"/><path d="m194.453125 327.167969h-25.21875c-2.273437 0-4.121094-1.84375-4.121094-4.121094v-42.113281c0-2.277344 1.847657-4.121094 4.121094-4.121094h25.21875c2.273437 0 4.121094 1.84375 4.121094 4.121094v42.113281c0 2.277344-1.847657 4.121094-4.121094 4.121094zm0 0" fill="#9de599"/><path d="m71.875 276.8125h-25.214844c-.777344 0-1.5.226562-2.121094.601562h11.65625c2.277344 0 4.121094 1.847657 4.121094 4.121094v42.117188c0 1.496094-.804687 2.792968-2 3.515625h13.558594c2.277344 0 4.121094-1.84375 4.121094-4.121094v-42.113281c0-2.277344-1.847656-4.121094-4.121094-4.121094zm0 0" fill="#74d4a2"/><path d="m133.164062 276.8125h-25.21875c-.777343 0-1.496093.226562-2.117187.601562h11.65625c2.277344 0 4.121094 1.847657 4.121094 4.121094v42.117188c0 1.496094-.808594 2.792968-2.003907 3.515625h13.5625c2.273438 0 4.121094-1.84375 4.121094-4.121094v-42.113281c0-2.277344-1.847656-4.121094-4.121094-4.121094zm0 0" fill="#74d4a2"/><path d="m194.453125 276.8125h-25.21875c-.777344 0-1.496094.226562-2.117187.601562h11.65625c2.277343 0 4.121093 1.847657 4.121093 4.121094v42.117188c0 1.496094-.804687 2.792968-2.003906 3.515625h13.5625c2.273437 0 4.121094-1.84375 4.121094-4.121094v-42.113281c-.003907-2.277344-1.847657-4.121094-4.121094-4.121094zm0 0" fill="#74d4a2"/><g fill="#635562"><path d="m198.570312 368.082031h-156.03125c-4.269531 0-7.726562-3.457031-7.726562-7.726562 0-4.265625 3.457031-7.722657 7.726562-7.722657h156.03125c4.269532 0 7.726563 3.457032 7.726563 7.722657 0 4.269531-3.457031 7.726562-7.726563 7.726562zm0 0"/><path d="m198.570312 401.550781h-156.03125c-4.269531 0-7.726562-3.457031-7.726562-7.726562 0-4.265625 3.457031-7.726563 7.726562-7.726563h156.03125c4.269532 0 7.726563 3.460938 7.726563 7.726563 0 4.269531-3.457031 7.726562-7.726563 7.726562zm0 0"/><path d="m198.570312 435.019531h-156.03125c-4.269531 0-7.726562-3.457031-7.726562-7.726562 0-4.265625 3.457031-7.726563 7.726562-7.726563h156.03125c4.269532 0 7.726563 3.460938 7.726563 7.726563 0 4.269531-3.457031 7.726562-7.726563 7.726562zm0 0"/></g><path d="m169.363281 472.652344h-97.617187c-5.6875 0-10.300782 4.613281-10.300782 10.300781v29.046875h118.21875v-29.046875c0-5.6875-4.613281-10.300781-10.300781-10.300781zm0 0" fill="#ffe177"/><path d="m169.363281 472.652344h-34.375c5.691407 0 10.304688 4.613281 10.304688 10.300781v29.046875h34.371093v-29.046875c0-5.6875-4.609374-10.300781-10.300781-10.300781zm0 0" fill="#ffcf5c"/></svg>