<?xml version="1.0" encoding="utf-8"?>
<!-- Generator: Adobe Illustrator 24.1.2, SVG Export Plug-In . SVG Version: 6.00 Build 0)  -->
<svg version="1.1" id="Capa_1" xmlns="http://www.w3.org/2000/svg" xmlns:xlink="http://www.w3.org/1999/xlink" x="0px" y="0px"
	 viewBox="0 0 512 512" style="enable-background:new 0 0 512 512;" xml:space="preserve">
<style type="text/css">
	.st0{fill:#C7C5CB;}
	.st1{fill:#6A647F;}
	.st2{fill:#4F4C5F;}
	.st3{fill:#F9D888;}
	.st4{fill:#FFBE73;}
	.st5{fill:#ECECEC;}
	.st6{fill:#423E4F;}
</style>
<g>
	<path class="st0" d="M206.2,102.4h-35.6L65.7,207.3l35.6,35.6L206.2,138L206.2,102.4z"/>
	<path class="st1" d="M476.4,143.7c0-38.4-15-74.5-42.1-101.6C378.2-14,287-14,231,42l-60.4,60.4l35.6,35.6l60.4-60.4
		c36.4-36.4,95.7-36.4,132.1,0c17.6,17.6,27.4,41.1,27.4,66s-9.7,48.4-27.4,66L353.4,255l35.6,35.6l45.3-45.3
		C461.4,218.2,476.4,182.1,476.4,143.7L476.4,143.7z"/>
	<path class="st2" d="M389,290.6l45.3-45.3c3.8-3.8,7.3-7.7,10.6-11.8c-13.9-10.3-29.4-18.3-46.2-23.8c0,0,0,0,0,0L353.4,255
		L389,290.6z"/>
	<path class="st3" d="M237.3,297.8l95.8-66.9c15-1,30.1,0.6,44.7,4.8l6.6,1.9c56.2,16.1,94.9,67.4,94.9,125.9l-87.2,144.9H121.6
		c-20,0-35.5-17.4-33.3-37.3c5.2-46.9,20.1-84.9,40.4-115.6L237.3,297.8z"/>
	<path class="st4" d="M414.6,417.9h32l32.7-54.4c0-58.4-38.7-109.8-94.9-125.9l-6.6-1.9c-9.4-2.7-19.1-4.3-28.8-4.8l4.6,1.3
		c56.2,16.4,94.9,68.8,94.9,128.4L414.6,417.9L414.6,417.9z"/>
	<circle class="st1" cx="404" cy="417.9" r="94.1"/>
	<circle class="st5" cx="404" cy="417.9" r="46.9"/>
	<path class="st1" d="M333.1,231c-8.5,0.6-16.9,2-25.2,4.2c-48.3,13-129.6,45-179.2,120.3l11.5,11.5c16.8,16.8,43.9,16.5,60.6-0.4
		c5.4-5.5,11.2-10.8,17.3-15.9c28.2-23.3,59.7-38.4,86.8-48.2c16.9-6.1,28.2-22.1,28.2-40L333.1,231L333.1,231z"/>
	<g>
		<g>
			<path class="st6" d="M140.4,458.1V446c0-4.3,3.5-7.7,7.7-7.7c4.3,0,7.7,3.5,7.7,7.7v12.1c0,4.3-3.5,7.7-7.7,7.7
				C143.8,465.8,140.4,462.3,140.4,458.1z"/>
		</g>
		<g>
			<path class="st6" d="M266.1,458.1V446c0-4.3,3.5-7.7,7.7-7.7s7.7,3.5,7.7,7.7v12.1c0,4.3-3.5,7.7-7.7,7.7
				S266.1,462.3,266.1,458.1z"/>
		</g>
		<g>
			<path class="st6" d="M211,473c-8.6,0-16.8-3.7-22.4-10.2c-2.8-3.2-2.5-8.1,0.7-10.9s8.1-2.5,10.9,0.7c2.7,3.1,6.6,4.9,10.8,4.9
				s8-1.8,10.8-4.9c2.8-3.2,7.7-3.6,10.9-0.7c3.2,2.8,3.6,7.7,0.7,10.9C227.7,469.3,219.6,473,211,473L211,473z"/>
		</g>
	</g>
	<path class="st3" d="M140,227.8c17.5,17.5,17.5,45.8,0,63.2c-5,5-13,5-17.9,0L17.6,186.5c-5-5-5-13,0-17.9
		c17.5-17.5,45.8-17.5,63.2,0L140,227.8L140,227.8z"/>
	<path class="st4" d="M122.1,291c5,5,13,5,17.9,0c17.5-17.5,17.5-45.8,0-63.2l-20.6-20.6c17.5,17.5,17.5,45.8,0,63.2
		c-5,5-13,5-17.9,0L122.1,291z"/>
</g>
</svg>
